<?xml version="1.0" encoding="UTF-8" standalone="no"?>
<!-- exported from Silhouette Studio® Business Edition V5.0.402ssbe -->

<svg
   version="1.1"
   width="1530"
   role="img"
   aria-labelledby="logo-title logo-desc"
   height="1530"
   viewBox="-3 -3 1530 1530"
   id="svg3"
   sodipodi:docname="evergray_tech.svg"
   xmlns:sodipodi="http://sodipodi.sourceforge.net/DTD/sodipodi-0.dtd"
   xmlns:xlink="http://www.w3.org/1999/xlink"
   xmlns="http://www.w3.org/2000/svg"
   xmlns:svg="http://www.w3.org/2000/svg">
  <title id="logo-title">EverGray Tech Logo</title>
  <desc id="logo-desc">A stylized letter 'e' and 'g' forming the EverGray Tech brand mark, rendered in a gradient from burgundy to navy to blue</desc>
  <metadata>
   <rdf:RDF xmlns:rdf="http://www.w3.org/1999/02/22-rdf-syntax-ns#"
            xmlns:dc="http://purl.org/dc/elements/1.1/">
      <rdf:Description rdf:about="">
         <dc:title>EverGray Tech Logo</dc:title>
         <dc:creator>Allen Rose</dc:creator>
         <dc:rights>Copyright © 2026 EverGray Tech. All rights reserved.</dc:rights>
         <dc:date>2026</dc:date>
         <dc:format>image/svg+xml</dc:format>
      </rdf:Description>
   </rdf:RDF>
  </metadata>
  <sodipodi:namedview
     id="namedview3"
     pagecolor="#505050"
     bordercolor="#eeeeee"
     borderopacity="1" />
  <defs>
    <linearGradient id="GradientColor">
      <stop offset="0%" style="stop-color:#6C0E23;"/>
      <stop offset="50%" style="stop-color:#12263A;" />
      <stop offset="100%" style="stop-color:#2B5C8C;" />
    </linearGradient>
    <linearGradient
       xlink:href="#GradientColor"
       id="GradientPosition"
       x1="260"
       y1="0"
       x2="1260"
       y2="1530"
       gradientUnits="userSpaceOnUse"
       spreadMethod="pad"
       gradientTransform="translate(0,0)"
   />
   </defs>     
   <g fill="url(#GradientPosition)" stroke="none">
      <path
         id="e"
         d="M 330.0022 1389.578 C 320.7131 1383.167 311.574 1376.556 302.5891 1369.75 C 118.8289 1230.553 0.0012315 1010.005 0.0012207 761.9999 C 0.0012023 341.5405 341.5432 -0.000061 762.0007 -0.000061 C 893.3942 -0.000061 1017.081 33.35352 1125.046 92.04602 L 1126.408 92.79187 L 894.7756 324.4247 L 891.2497 323.3668 C 850.2568 311.2846 806.8781 304.8 762.0016 304.8 C 563.9262 304.8 395.0411 431.1296 331.6158 607.5198 L 330.8761 609.5993 L 609.6002 609.5993 L 609.6008 914.3998 L 330.8762 914.3998 L 331.616 916.48 C 377.6982 1044.638 479.4524 1146.37 607.6252 1192.423 L 609.6018 1193.122 L 609.6018 1508.717 L 608.5774 1508.51 C 506.9016 1487.679 412.5681 1446.56 330.0022 1389.578 Z" 
      />
      <path
         id="g"
         d="M 1193.128 914.3996 L 914.3996 914.3996 L 914.3996 914.3996 L 914.3996 914.3996 L 914.3996 609.5991 L 1193.128 609.5991 L 1193.128 609.5991 L 1508.717 609.5991 L 1509.441 613.1928 C 1518.992 661.327 1524 711.0848 1524 761.9998 C 1524 1129.902 1262.508 1437.382 915.4597 1508.503 L 914.3999 1508.717 L 914.3998 1193.122 L 916.3779 1192.423 C 1044.551 1146.37 1146.305 1044.638 1192.386 916.4798 L 1193.128 914.3996 Z M 1219.2 761.9998 L 1219.2 761.7778 L 1219.199 762.2204 L 1219.2 761.9998 Z" 
      />
   </g>
</svg>
